<?xml version="1.0" encoding="UTF-8" standalone="no"?>
<!-- Created with Inkscape (http://www.inkscape.org/) -->

<svg
   xmlns:osb="http://www.openswatchbook.org/uri/2009/osb"
   xmlns:dc="http://purl.org/dc/elements/1.1/"
   xmlns:cc="http://creativecommons.org/ns#"
   xmlns:rdf="http://www.w3.org/1999/02/22-rdf-syntax-ns#"
   xmlns:svg="http://www.w3.org/2000/svg"
   xmlns="http://www.w3.org/2000/svg"
   xmlns:sodipodi="http://sodipodi.sourceforge.net/DTD/sodipodi-0.dtd"
   xmlns:inkscape="http://www.inkscape.org/namespaces/inkscape"
   width="155.9702mm"
   height="129.87674mm"
   viewBox="0 0 155.9702 129.87674"
   version="1.1"
   id="svg8"
   sodipodi:docname="logo.svg"
   inkscape:version="0.92.4 (5da689c313, 2019-01-14)">
  <defs
     id="defs2">
    <linearGradient
       id="linearGradient4757"
       osb:paint="solid">
      <stop
         style="stop-color:#000000;stop-opacity:1;"
         offset="0"
         id="stop4755" />
    </linearGradient>
  </defs>
  <sodipodi:namedview
     id="base"
     pagecolor="#ffffff"
     bordercolor="#666666"
     borderopacity="1.0"
     inkscape:pageopacity="0.0"
     inkscape:pageshadow="2"
     inkscape:zoom="0.98994949"
     inkscape:cx="-67.72309"
     inkscape:cy="200.16197"
     inkscape:document-units="mm"
     inkscape:current-layer="layer2"
     showgrid="false"
     inkscape:window-width="2560"
     inkscape:window-height="1360"
     inkscape:window-x="-11"
     inkscape:window-y="-11"
     inkscape:window-maximized="1"
     showguides="true"
     inkscape:guide-bbox="true"
     fit-margin-top="0"
     fit-margin-left="0"
     fit-margin-right="0"
     fit-margin-bottom="0" />
  <metadata
     id="metadata5">
    <rdf:RDF>
      <cc:Work
         rdf:about="">
        <dc:format>image/svg+xml</dc:format>
        <dc:type
           rdf:resource="http://purl.org/dc/dcmitype/StillImage" />
        <dc:title></dc:title>
      </cc:Work>
    </rdf:RDF>
  </metadata>
  <g
     inkscape:groupmode="layer"
     id="layer2"
     inkscape:label="anvil"
     style="display:inline"
     transform="translate(-0.07009828,-0.00326719)">
    <path
       style="fill:#000000;fill-opacity:1;stroke:#000000;stroke-width:0.12243062;stroke-miterlimit:4;stroke-dasharray:none;stroke-opacity:1"
       d="M 98.557322,18.349973 96.344331,21.84041 77.41134,21.82022 c -0.12818,0.04181 -1.079207,0.993212 0.327817,2.888346 5.692176,7.104322 12.848562,11.671404 22.092794,12.621368 l 3.026889,0.228252 c 2.55338,3.106233 2.15178,5.759445 0.70871,8.253154 l -7.926754,2.854999 -2.247273,3.894336 40.494137,0.01128 -2.26042,-3.728549 -7.43268,-3.181879 c -7.46951,-14.220379 5.7955,-18.903252 21.39161,-21.69829 1.17902,-1.729351 1.82365,-2.280122 0.82001,-5.531535 l -12.0855,-0.08172 h -11.92112 -11.4402 -0.84208 c -0.84444,1.934434 -0.41383,3.316532 1.30395,4.727493 l 1.06362,4.155332 c -2.10988,2.236779 -6.25888,3.476686 -9.25713,2.009024 L 102.1641,24.48582 c 1.5442,-2.115013 0.8978,-3.363641 -1.26041,-4.722194 l -0.1733,-0.637784 c -0.25702,-0.254906 -0.48656,-0.513512 -0.69226,-0.775862 z"
       id="rect4540"
       inkscape:connector-curvature="0"
       sodipodi:nodetypes="cccccccccccccccccccccccccc"
       inkscape:export-xdpi="32.660194"
       inkscape:export-ydpi="32.660194" />
    <path
       style="fill:#000000;fill-opacity:1;stroke:#000000;stroke-width:0.14167102;stroke-miterlimit:4;stroke-dasharray:none;stroke-opacity:1"
       d="m 93.501621,53.569947 h 40.380869 l -1.94682,6.259678 -8.14841,0.866049 c -7.32357,-6.687311 -13.95659,-5.624414 -20.19041,0 l -8.148392,-0.866049 z"
       id="rect4543"
       inkscape:connector-curvature="0"
       sodipodi:nodetypes="ccccccc"
       inkscape:export-xdpi="32.660194"
       inkscape:export-ydpi="32.660194" />
    <path
       style="fill:#000000;fill-opacity:1;stroke:none;stroke-width:1.10772979;stroke-miterlimit:4;stroke-dasharray:none;stroke-opacity:1"
       d="m 103.90552,28.514098 -0.89219,-3.802896 c 1.5442,-2.115011 0.94967,-3.792973 -1.20855,-5.151526 l -0.17347,-0.63742 c -1.949075,-1.933038 -2.414322,-4.068513 -1.52036,-6.582394 L 99.943123,11.62473 C 101.66628,8.5766289 100.11168,7.3835845 98.655187,6.1349164 l -0.988666,-4.2136739 7.522489,-1.53689864 0.98863,4.21368174 c -0.80651,2.0824135 -0.48911,3.9352213 1.28796,5.4898114 l 1.02588,0.332265 c 19.57448,-2.3485488 26.26733,-4.4581006 45.38087,-9.027182 3.11852,1.9990857 2.17929,3.9981727 1.40698,5.9972555 -19.48342,2.8846465 -26.27369,4.5395595 -45.15897,9.9730615 l -0.79321,0.659616 c -0.91621,1.986667 -0.54585,3.710474 1.20856,5.151524 l 0.89221,3.802893 c -2.10988,1.863293 -4.52422,2.692152 -7.52247,1.536895 z"
       id="rect4877"
       inkscape:connector-curvature="0"
       sodipodi:nodetypes="cccccccccccccccccccc"
       inkscape:export-xdpi="32.660194"
       inkscape:export-ydpi="32.660194" />
  </g>
  <g
     inkscape:groupmode="layer"
     id="layer4"
     inkscape:label="hammer"
     transform="translate(-0.07009828,-0.00326719)" />
  <g
     inkscape:groupmode="layer"
     id="layer5"
     inkscape:label="zpl forge"
     transform="translate(-0.07009828,-0.00326719)">
    <g
       aria-label="ZPL FORGE"
       transform="matrix(0.5068059,0,0,0.5068059,-169.49406,0.55091703)"
       style="font-style:normal;font-variant:normal;font-weight:500;font-stretch:normal;font-size:40px;line-height:1.25;font-family:'Reenie Beanie';-inkscape-font-specification:'Reenie Beanie, Medium';font-variant-ligatures:normal;font-variant-caps:normal;font-variant-numeric:normal;font-feature-settings:normal;text-align:start;letter-spacing:0px;word-spacing:0px;writing-mode:lr-tb;text-anchor:start;fill:#000000;fill-opacity:1;stroke:none"
       id="flowRoot4987"
       inkscape:export-xdpi="32.660194"
       inkscape:export-ydpi="32.660194">
      <path
         d="M 389.34614,114.13046 H 334.57416 V 92.542885 l 32.48665,-71.33954 H 336.15033 V -1.0805909 h 51.44451 V 20.893845 l -32.44288,70.95267 h 34.19418 z"
         style="font-style:normal;font-variant:normal;font-weight:bold;font-stretch:normal;font-size:96px;font-family:sans-serif;-inkscape-font-specification:'sans-serif, Bold';font-variant-ligatures:normal;font-variant-caps:normal;font-variant-numeric:normal;font-feature-settings:normal;text-align:start;writing-mode:lr-tb;text-anchor:start;stroke-width:1.241678"
         id="path4997"
         inkscape:connector-curvature="0" />
      <path
         d="m 444.75729,35.285554 q 0,7.737477 -1.5324,15.165456 -1.53238,7.350604 -4.37825,12.379965 -3.89664,6.80898 -8.71273,10.29084 -4.77229,3.48187 -11.90885,3.48187 h -10.46404 v 37.526775 h -16.8125 V -1.0805909 h 27.67058 q 6.21712,0 10.46403,1.93436904 4.2907,1.85699496 7.57438,5.64835896 3.94043,4.5651119 5.99822,11.6835909 2.10156,7.11848 2.10156,17.099826 z m -17.38168,0.696373 q 0,-4.874611 -1.48861,-8.356476 -1.4886,-3.55924 -3.45881,-4.951986 -2.62696,-1.856994 -5.12258,-2.011744 -2.4956,-0.232124 -6.65494,-0.232124 h -2.88965 v 34.50915 h 4.81608 q 4.29069,0 7.049,-0.928497 2.80209,-0.928498 4.68473,-3.71399 1.61996,-2.475993 2.32048,-5.880483 0.7443,-3.481865 0.7443,-8.43385 z"
         style="font-style:normal;font-variant:normal;font-weight:bold;font-stretch:normal;font-size:96px;font-family:sans-serif;-inkscape-font-specification:'sans-serif, Bold';font-variant-ligatures:normal;font-variant-caps:normal;font-variant-numeric:normal;font-feature-settings:normal;text-align:start;writing-mode:lr-tb;text-anchor:start;stroke-width:1.241678"
         id="path4999"
         inkscape:connector-curvature="0" />
      <path
         d="M 493.64482,114.13046 H 446.62236 V -1.0805909 h 16.8125 V 91.846515 h 30.20996 z"
         style="font-style:normal;font-variant:normal;font-weight:bold;font-stretch:normal;font-size:96px;font-family:sans-serif;-inkscape-font-specification:'sans-serif, Bold';font-variant-ligatures:normal;font-variant-caps:normal;font-variant-numeric:normal;font-feature-settings:normal;text-align:start;writing-mode:lr-tb;text-anchor:start;stroke-width:1.241678"
         id="path5001"
         inkscape:connector-curvature="0" />
      <path
         d="m 381.66842,159.85894 h -29.99107 v 21.43282 h 27.80193 v 22.28394 h -27.80193 v 49.21036 H 334.95242 V 137.57501 h 46.716 z"
         style="font-style:normal;font-variant:normal;font-weight:bold;font-stretch:normal;font-size:96px;font-family:sans-serif;-inkscape-font-specification:'sans-serif, Bold';font-variant-ligatures:normal;font-variant-caps:normal;font-variant-numeric:normal;font-feature-settings:normal;text-align:start;writing-mode:lr-tb;text-anchor:start;stroke-width:1.241678"
         id="path5003"
         inkscape:connector-curvature="0" />
      <path
         d="m 448.66793,195.21922 q 0,27.54542 -8.93164,43.79413 -8.93164,16.17132 -24.69336,16.17132 -15.71794,0 -24.64958,-16.17132 -8.93164,-16.24871 -8.93164,-43.79413 0,-27.77755 8.93164,-43.8715 8.93164,-16.17132 24.64958,-16.17132 15.67415,0 24.64958,16.17132 8.97542,16.09395 8.97542,43.8715 z m -22.28532,29.17028 q 2.45182,-5.26148 3.63395,-12.37996 1.18214,-7.19585 1.18214,-16.8677 0,-10.36822 -1.35727,-17.64145 -1.35725,-7.27323 -3.54639,-11.76097 -2.23291,-4.64248 -5.16634,-6.73159 -2.88965,-2.08913 -6.04199,-2.08913 -3.19612,0 -6.04199,2.01174 -2.80208,2.01175 -5.16634,6.65424 -2.18913,4.33298 -3.59017,11.99309 -1.35727,7.58273 -1.35727,17.64145 0,10.29084 1.31347,17.56407 1.35727,7.19586 3.54641,11.76096 2.18912,4.56512 5.12255,6.73162 2.93344,2.16649 6.17334,2.16649 3.23991,0 6.17334,-2.16649 2.93344,-2.24388 5.12256,-6.88637 z"
         style="font-style:normal;font-variant:normal;font-weight:bold;font-stretch:normal;font-size:96px;font-family:sans-serif;-inkscape-font-specification:'sans-serif, Bold';font-variant-ligatures:normal;font-variant-caps:normal;font-variant-numeric:normal;font-feature-settings:normal;text-align:start;writing-mode:lr-tb;text-anchor:start;stroke-width:1.241678"
         id="path5005"
         inkscape:connector-curvature="0" />
      <path
         d="m 486.01087,172.8579 q 0,-4.33298 -1.00699,-7.42797 -1.007,-3.095 -3.45882,-4.87461 -1.70753,-1.23799 -3.98422,-1.47013 -2.2767,-0.3095 -5.29768,-0.3095 h -6.08578 v 31.0273 h 5.16634 q 4.02799,0 6.74251,-0.69638 2.71452,-0.69637 4.55339,-3.17236 1.7513,-2.39863 2.53938,-5.26149 0.83187,-2.94024 0.83187,-7.81486 z m 26.22576,79.92816 h -20.53402 l -17.77572,-42.24663 h -7.74951 v 42.24663 H 449.45244 V 137.57501 h 28.19597 q 5.77929,0 9.93864,1.16063 4.15934,1.16061 7.7933,5.02935 3.67773,3.86874 5.82307,10.05872 2.18913,6.11261 2.18913,15.39759 0,12.76683 -3.37125,20.8138 -3.32747,8.04698 -9.54459,13.38585 z"
         style="font-style:normal;font-variant:normal;font-weight:bold;font-stretch:normal;font-size:96px;font-family:sans-serif;-inkscape-font-specification:'sans-serif, Bold';font-variant-ligatures:normal;font-variant-caps:normal;font-variant-numeric:normal;font-feature-settings:normal;text-align:start;writing-mode:lr-tb;text-anchor:start;stroke-width:1.241678"
         id="path5007"
         inkscape:connector-curvature="0" />
      <path
         d="m 567.3413,246.20919 q -4.37825,3.01763 -11.60238,6.03523 -7.22412,2.94025 -14.40446,2.94025 -16.63737,0 -26.05063,-15.93921 -9.41324,-16.01657 -9.41324,-44.18099 0,-26.84905 9.5008,-43.25251 9.50083,-16.48081 26.48845,-16.48081 6.43604,0 12.25913,2.08911 5.82307,2.01174 12.95963,8.12436 v 27.00378 h -1.88265 q -1.22592,-1.62486 -3.59017,-4.5651 -2.36426,-3.01762 -4.55339,-5.10673 -2.53939,-2.476 -5.95443,-4.25562 -3.37125,-1.77962 -7.18034,-1.77962 -4.46582,0 -8.09977,2.32125 -3.63395,2.32124 -6.52361,7.11848 -2.75828,4.64248 -4.37825,11.83833 -1.57617,7.11848 -1.57617,16.48083 0,19.11157 5.73552,29.24767 5.73551,10.13609 16.94385,10.13609 0.96322,0 2.10156,-0.0774 1.18213,-0.0774 2.14535,-0.23213 v -22.59344 h -13.00342 v -21.7423 h 30.07862 z"
         style="font-style:normal;font-variant:normal;font-weight:bold;font-stretch:normal;font-size:96px;font-family:sans-serif;-inkscape-font-specification:'sans-serif, Bold';font-variant-ligatures:normal;font-variant-caps:normal;font-variant-numeric:normal;font-feature-settings:normal;text-align:start;writing-mode:lr-tb;text-anchor:start;stroke-width:1.241678"
         id="path5009"
         inkscape:connector-curvature="0" />
      <path
         d="M 617.51253,252.78606 H 570.35871 V 137.57501 h 47.15382 v 22.28393 h -30.42888 v 19.88533 h 28.23975 v 22.28393 h -28.23975 v 28.47392 h 30.42888 z"
         style="font-style:normal;font-variant:normal;font-weight:bold;font-stretch:normal;font-size:96px;font-family:sans-serif;-inkscape-font-specification:'sans-serif, Bold';font-variant-ligatures:normal;font-variant-caps:normal;font-variant-numeric:normal;font-feature-settings:normal;text-align:start;writing-mode:lr-tb;text-anchor:start;stroke-width:1.241678"
         id="path5011"
         inkscape:connector-curvature="0" />
    </g>
  </g>
</svg>
